<?xml version="1.0" encoding="UTF-8" standalone="no"?>
<!-- Created with Inkscape (http://www.inkscape.org/) -->

<svg
   xmlns:dc="http://purl.org/dc/elements/1.1/"
   xmlns:cc="http://creativecommons.org/ns#"
   xmlns:rdf="http://www.w3.org/1999/02/22-rdf-syntax-ns#"
   xmlns:svg="http://www.w3.org/2000/svg"
   xmlns="http://www.w3.org/2000/svg"
   xmlns:sodipodi="http://sodipodi.sourceforge.net/DTD/sodipodi-0.dtd"
   xmlns:inkscape="http://www.inkscape.org/namespaces/inkscape"
   width="100mm"
   height="100mm"
   viewBox="0 0 100 100"
   version="1.1"
   id="svg8"
   inkscape:version="0.92.3 (2405546, 2018-03-11)"
   sodipodi:docname="missing_bit_square.svg"
   inkscape:export-filename="F:\Pictures\Missing Bit Studios\Logo\missing_bit_square.png"
   inkscape:export-xdpi="260.09601"
   inkscape:export-ydpi="260.09601">
  <defs
     id="defs2" />
  <sodipodi:namedview
     id="base"
     pagecolor="#ffffff"
     bordercolor="#666666"
     borderopacity="1.0"
     inkscape:pageopacity="1"
     inkscape:pageshadow="2"
     inkscape:zoom="0.7"
     inkscape:cx="358.25904"
     inkscape:cy="216.87915"
     inkscape:document-units="mm"
     inkscape:current-layer="layer1"
     showgrid="false"
     inkscape:window-width="1920"
     inkscape:window-height="1017"
     inkscape:window-x="-8"
     inkscape:window-y="-8"
     inkscape:window-maximized="1" />
  <metadata
     id="metadata5">
    <rdf:RDF>
      <cc:Work
         rdf:about="">
        <dc:format>image/svg+xml</dc:format>
        <dc:type
           rdf:resource="http://purl.org/dc/dcmitype/StillImage" />
        <dc:title />
      </cc:Work>
    </rdf:RDF>
  </metadata>
  <g
     inkscape:label="Layer 1"
     inkscape:groupmode="layer"
     id="layer1"
     transform="translate(0,-197)">
    <g
       aria-label="0 01 1010"
       style="font-style:normal;font-variant:normal;font-weight:normal;font-stretch:normal;font-size:35.27777863px;line-height:1.25;font-family:'Share Tech Mono';-inkscape-font-specification:'Share Tech Mono';letter-spacing:0px;word-spacing:0px;fill:#000000;fill-opacity:1;stroke:none;stroke-width:0.26458332"
       id="text16">
      <path
         d="m 27.754054,231.30139 q 0,2.92806 -1.622778,4.48028 -1.5875,1.51694 -4.303889,1.51694 h -0.705556 q -2.716389,0 -4.339167,-1.51694 -1.5875,-1.55222 -1.5875,-4.48028 v -12.7 q 0,-2.96333 1.5875,-4.48028 1.587501,-1.51694 4.339167,-1.51694 h 0.705556 q 2.751667,0 4.339167,1.51694 1.5875,1.51695 1.5875,4.48028 z m -2.998612,-13.37028 q 0,-1.09361 -0.846666,-1.86972 Q 23.097387,215.25 21.827387,215.25 h -0.705556 q -1.27,0 -2.116666,0.81139 -0.811389,0.77611 -0.811389,1.86972 v 9.56028 z m -6.561666,14.04056 q 0,1.09361 0.811389,1.905 0.846666,0.77611 2.116666,0.77611 h 0.705556 q 1.27,0 2.081389,-0.77611 0.846666,-0.81139 0.846666,-1.905 v -9.525 z"
         style="font-size:35.27777863px;stroke-width:0.26458332"
         id="path3731" />
      <path
         d="m 65.787909,231.30139 q 0,2.92806 -1.622778,4.48028 -1.5875,1.51694 -4.303889,1.51694 h -0.705555 q -2.716389,0 -4.339167,-1.51694 -1.5875,-1.55222 -1.5875,-4.48028 v -12.7 q 0,-2.96333 1.5875,-4.48028 1.5875,-1.51694 4.339167,-1.51694 h 0.705555 q 2.751667,0 4.339167,1.51694 1.5875,1.51695 1.5875,4.48028 z m -2.998611,-13.37028 q 0,-1.09361 -0.846667,-1.86972 Q 61.131242,215.25 59.861242,215.25 h -0.705555 q -1.27,0 -2.116667,0.81139 -0.811389,0.77611 -0.811389,1.86972 v 9.56028 z m -6.561667,14.04056 q 0,1.09361 0.811389,1.905 0.846667,0.77611 2.116667,0.77611 h 0.705555 q 1.27,0 2.081389,-0.77611 0.846667,-0.81139 0.846667,-1.905 v -9.525 z"
         style="font-size:35.27777863px;stroke-width:0.26458332"
         id="path3733" />
      <path
         d="m 77.57289,234.65278 v -19.26167 l -4.974167,1.83445 v -2.8575 l 4.621389,-1.76389 h 3.351389 v 22.04861 h 3.845278 v 2.64583 H 72.951501 v -2.64583 z"
         style="font-size:35.27777863px;stroke-width:0.26458332"
         id="path3735" />
      <path
         d="m 20.522109,278.75 v -19.26166 l -4.974167,1.83444 v -2.8575 l 4.621389,-1.76389 H 23.52072 V 278.75 h 3.845278 v 2.64584 H 15.90072 V 278.75 Z"
         style="font-size:35.27777863px;stroke-width:0.26458332"
         id="path3737" />
      <path
         d="m 46.770981,275.39862 q 0,2.92805 -1.622777,4.48027 -1.587501,1.51695 -4.303889,1.51695 h -0.705556 q -2.716389,0 -4.339167,-1.51695 -1.5875,-1.55222 -1.5875,-4.48027 v -12.7 q 0,-2.96334 1.5875,-4.48028 1.5875,-1.51695 4.339167,-1.51695 h 0.705556 q 2.751666,0 4.339166,1.51695 1.5875,1.51694 1.5875,4.48028 z M 43.77237,262.02834 q 0,-1.09361 -0.846667,-1.86972 -0.811388,-0.81139 -2.081388,-0.81139 h -0.705556 q -1.27,0 -2.116667,0.81139 -0.811389,0.77611 -0.811389,1.86972 v 9.56028 z m -6.561667,14.04055 q 0,1.09361 0.811389,1.905 0.846667,0.77611 2.116667,0.77611 h 0.705556 q 1.27,0 2.081388,-0.77611 0.846667,-0.81139 0.846667,-1.905 v -9.525 z"
         style="font-size:35.27777863px;stroke-width:0.26458332"
         id="path3739" />
      <path
         d="m 58.555964,278.75 v -19.26166 l -4.974166,1.83444 v -2.8575 l 4.621389,-1.76389 h 3.351389 V 278.75 h 3.845278 v 2.64584 H 53.934575 V 278.75 Z"
         style="font-size:35.27777863px;stroke-width:0.26458332"
         id="path3741" />
      <path
         d="m 84.804835,275.39862 q 0,2.92805 -1.622778,4.48027 -1.5875,1.51695 -4.303889,1.51695 h -0.705556 q -2.716388,0 -4.339166,-1.51695 -1.5875,-1.55222 -1.5875,-4.48027 v -12.7 q 0,-2.96334 1.5875,-4.48028 1.5875,-1.51695 4.339166,-1.51695 h 0.705556 q 2.751667,0 4.339167,1.51695 1.5875,1.51694 1.5875,4.48028 z m -2.998611,-13.37028 q 0,-1.09361 -0.846667,-1.86972 -0.811389,-0.81139 -2.081389,-0.81139 h -0.705556 q -1.27,0 -2.116666,0.81139 -0.811389,0.77611 -0.811389,1.86972 v 9.56028 z m -6.561667,14.04055 q 0,1.09361 0.811389,1.905 0.846666,0.77611 2.116666,0.77611 h 0.705556 q 1.27,0 2.081389,-0.77611 0.846667,-0.81139 0.846667,-1.905 v -9.525 z"
         style="font-size:35.27777863px;stroke-width:0.26458332"
         id="path3743" />
    </g>
    <flowRoot
       xml:space="preserve"
       id="flowRoot20"
       style="fill:black;fill-opacity:1;stroke:none;font-family:'Share Tech Mono';font-style:normal;font-weight:normal;font-size:40px;line-height:1.25;letter-spacing:0px;word-spacing:0px;-inkscape-font-specification:'Share Tech Mono';font-stretch:normal;font-variant:normal"><flowRegion
         id="flowRegion22"><rect
           id="rect24"
           width="534.28571"
           height="471.42856"
           x="101.42857"
           y="-39.190098" /></flowRegion><flowPara
         id="flowPara26" /></flowRoot>  </g>
</svg>
