<?xml version="1.0" encoding="UTF-8" standalone="no"?>
<!-- Created with Inkscape (http://www.inkscape.org/) -->

<svg
   xmlns:dc="http://purl.org/dc/elements/1.1/"
   xmlns:cc="http://creativecommons.org/ns#"
   xmlns:rdf="http://www.w3.org/1999/02/22-rdf-syntax-ns#"
   xmlns:svg="http://www.w3.org/2000/svg"
   xmlns="http://www.w3.org/2000/svg"
   xmlns:sodipodi="http://sodipodi.sourceforge.net/DTD/sodipodi-0.dtd"
   xmlns:inkscape="http://www.inkscape.org/namespaces/inkscape"
   width="175mm"
   height="150mm"
   viewBox="0 0 175 150"
   version="1.1"
   id="svg50"
   inkscape:version="0.92.3 (2405546, 2018-03-11)"
   sodipodi:docname="missing_bit_tall.svg"
   inkscape:export-filename="F:\Pictures\Missing Bit Studios\Logo\missing_bit_tall.png"
   inkscape:export-xdpi="96"
   inkscape:export-ydpi="96">
  <defs
     id="defs44" />
  <sodipodi:namedview
     id="base"
     pagecolor="#ffffff"
     bordercolor="#666666"
     borderopacity="1.0"
     inkscape:pageopacity="1"
     inkscape:pageshadow="2"
     inkscape:zoom="0.98994949"
     inkscape:cx="20.69888"
     inkscape:cy="285.43383"
     inkscape:document-units="mm"
     inkscape:current-layer="layer1"
     showgrid="false"
     inkscape:window-width="1920"
     inkscape:window-height="1017"
     inkscape:window-x="-8"
     inkscape:window-y="-8"
     inkscape:window-maximized="1" />
  <metadata
     id="metadata47">
    <rdf:RDF>
      <cc:Work
         rdf:about="">
        <dc:format>image/svg+xml</dc:format>
        <dc:type
           rdf:resource="http://purl.org/dc/dcmitype/StillImage" />
        <dc:title />
      </cc:Work>
    </rdf:RDF>
  </metadata>
  <g
     inkscape:label="Layer 1"
     inkscape:groupmode="layer"
     id="layer1"
     transform="translate(0,-147)">
    <g
       aria-label="0 011010"
       style="font-style:normal;font-variant:normal;font-weight:normal;font-stretch:normal;font-size:35.27777481px;line-height:1.25;font-family:'Share Tech Mono';-inkscape-font-specification:'Share Tech Mono';letter-spacing:0px;word-spacing:0px;fill:#000000;fill-opacity:1;stroke:none;stroke-width:0.26458332"
       id="text54"
       transform="translate(0.190438,-48.787318)">
      <path
         d="m 27.029762,277.10477 q 0,2.92805 -1.622778,4.48028 -1.587499,1.51694 -4.303888,1.51694 H 20.39754 q -2.716388,0 -4.339166,-1.51694 -1.5875,-1.55223 -1.5875,-4.48028 v -12.7 q 0,-2.96333 1.5875,-4.48028 1.5875,-1.51694 4.339166,-1.51694 h 0.705556 q 2.751666,0 4.339166,1.51694 1.5875,1.51695 1.5875,4.48028 z m -2.998611,-13.37028 q 0,-1.09361 -0.846666,-1.86972 -0.811389,-0.81139 -2.081389,-0.81139 H 20.39754 q -1.27,0 -2.116666,0.81139 -0.811389,0.77611 -0.811389,1.86972 v 9.56028 z m -6.561666,14.04056 q 0,1.09361 0.811389,1.905 0.846666,0.77611 2.116666,0.77611 h 0.705556 q 1.27,0 2.081389,-0.77611 0.846666,-0.81139 0.846666,-1.905 v -9.525 z"
         style="stroke-width:0.26458332"
         id="path56"
         inkscape:connector-curvature="0" />
      <path
         d="m 65.063614,277.10477 q 0,2.92805 -1.622778,4.48028 -1.5875,1.51694 -4.303889,1.51694 h -0.705555 q -2.716389,0 -4.339166,-1.51694 -1.5875,-1.55223 -1.5875,-4.48028 v -12.7 q 0,-2.96333 1.5875,-4.48028 1.5875,-1.51694 4.339166,-1.51694 h 0.705555 q 2.751667,0 4.339167,1.51694 1.5875,1.51695 1.5875,4.48028 z m -2.998611,-13.37028 q 0,-1.09361 -0.846667,-1.86972 -0.811389,-0.81139 -2.081389,-0.81139 h -0.705555 q -1.27,0 -2.116667,0.81139 -0.811388,0.77611 -0.811388,1.86972 v 9.56028 z m -6.561666,14.04056 q 0,1.09361 0.811388,1.905 0.846667,0.77611 2.116667,0.77611 h 0.705555 q 1.27,0 2.081389,-0.77611 0.846667,-0.81139 0.846667,-1.905 v -9.525 z"
         style="stroke-width:0.26458332"
         id="path58"
         inkscape:connector-curvature="0" />
      <path
         d="m 76.848596,280.45616 v -19.26167 l -4.974167,1.83445 v -2.8575 l 4.621389,-1.76389 h 3.351388 v 22.04861 h 3.845278 v 2.64583 H 72.227207 v -2.64583 z"
         style="stroke-width:0.26458332"
         id="path60"
         inkscape:connector-curvature="0" />
      <path
         d="m 95.865521,280.45616 v -19.26167 l -4.974166,1.83445 v -2.8575 l 4.621389,-1.76389 h 3.351388 v 22.04861 h 3.845278 v 2.64583 H 91.244133 v -2.64583 z"
         style="stroke-width:0.26458332"
         id="path62"
         inkscape:connector-curvature="0" />
      <path
         d="m 122.11439,277.10477 q 0,2.92805 -1.62278,4.48028 -1.5875,1.51694 -4.30389,1.51694 h -0.70555 q -2.71639,0 -4.33917,-1.51694 -1.5875,-1.55223 -1.5875,-4.48028 v -12.7 q 0,-2.96333 1.5875,-4.48028 1.5875,-1.51694 4.33917,-1.51694 h 0.70555 q 2.75167,0 4.33917,1.51694 1.5875,1.51695 1.5875,4.48028 z m -2.99861,-13.37028 q 0,-1.09361 -0.84667,-1.86972 -0.81139,-0.81139 -2.08139,-0.81139 h -0.70555 q -1.27,0 -2.11667,0.81139 -0.81139,0.77611 -0.81139,1.86972 v 9.56028 z m -6.56167,14.04056 q 0,1.09361 0.81139,1.905 0.84667,0.77611 2.11667,0.77611 h 0.70555 q 1.27,0 2.08139,-0.77611 0.84667,-0.81139 0.84667,-1.905 v -9.525 z"
         style="stroke-width:0.26458332"
         id="path64"
         inkscape:connector-curvature="0" />
      <path
         d="m 133.89937,280.45616 v -19.26167 l -4.97416,1.83445 v -2.8575 l 4.62139,-1.76389 h 3.35138 v 22.04861 h 3.84528 v 2.64583 h -11.46528 v -2.64583 z"
         style="stroke-width:0.26458332"
         id="path66"
         inkscape:connector-curvature="0" />
      <path
         d="m 160.14825,277.10477 q 0,2.92805 -1.62278,4.48028 -1.5875,1.51694 -4.30389,1.51694 h -0.70556 q -2.71638,0 -4.33916,-1.51694 -1.5875,-1.55223 -1.5875,-4.48028 v -12.7 q 0,-2.96333 1.5875,-4.48028 1.5875,-1.51694 4.33916,-1.51694 h 0.70556 q 2.75167,0 4.33917,1.51694 1.5875,1.51695 1.5875,4.48028 z m -2.99861,-13.37028 q 0,-1.09361 -0.84667,-1.86972 -0.81139,-0.81139 -2.08139,-0.81139 h -0.70556 q -1.27,0 -2.11666,0.81139 -0.81139,0.77611 -0.81139,1.86972 v 9.56028 z m -6.56167,14.04056 q 0,1.09361 0.81139,1.905 0.84666,0.77611 2.11666,0.77611 h 0.70556 q 1.27,0 2.08139,-0.77611 0.84667,-0.81139 0.84667,-1.905 v -9.525 z"
         style="stroke-width:0.26458332"
         id="path68"
         inkscape:connector-curvature="0" />
    </g>
    <text
       xml:space="preserve"
       style="font-style:normal;font-variant:normal;font-weight:normal;font-stretch:normal;font-size:35.27777481px;line-height:1.25;font-family:Roboto;-inkscape-font-specification:Roboto;letter-spacing:0px;word-spacing:0px;fill:#000000;fill-opacity:1;stroke:none;stroke-width:0.26458332;"
       x="15.501633"
       y="176.72871"
       id="text73"><tspan
         sodipodi:role="line"
         id="tspan71"
         x="15.501633"
         y="208.84103"
         style="stroke-width:0.26458332;-inkscape-font-specification:Roboto;font-family:Roboto;font-weight:normal;font-style:normal;font-stretch:normal;font-variant:normal;" /></text>
    <text
       xml:space="preserve"
       style="font-style:normal;font-variant:normal;font-weight:normal;font-stretch:normal;font-size:35.27777481px;line-height:1.25;font-family:'Share Tech Mono';-inkscape-font-specification:'Share Tech Mono';letter-spacing:0px;word-spacing:0px;fill:#000000;fill-opacity:1;stroke:none;stroke-width:0.26458332"
       x="17.907059"
       y="190.35945"
       id="text77"><tspan
         sodipodi:role="line"
         id="tspan75"
         x="17.907059"
         y="222.47177"
         style="stroke-width:0.26458332" /></text>
    <text
       xml:space="preserve"
       style="font-style:normal;font-variant:normal;font-weight:300;font-stretch:normal;font-size:35.27777778px;line-height:1.25;font-family:Roboto;-inkscape-font-specification:'Roboto, Light';letter-spacing:0px;word-spacing:0px;fill:#000000;fill-opacity:1;stroke:none;stroke-width:0.26458332;text-anchor:start;text-align:start;writing-mode:lr;font-variant-ligatures:normal;font-variant-caps:normal;font-variant-numeric:normal;font-feature-settings:normal;"
       x="21.648832"
       y="185.54861"
       id="text46"><tspan
         sodipodi:role="line"
         id="tspan48" /></text>
    <g
       aria-label="Missing Bit"
       style="font-style:normal;font-variant:normal;font-weight:500;font-stretch:normal;font-size:28.22222137px;line-height:1.25;font-family:Roboto;-inkscape-font-specification:'Roboto Medium';font-variant-ligatures:normal;font-variant-caps:normal;font-variant-numeric:normal;font-feature-settings:normal;text-align:start;letter-spacing:0px;word-spacing:0px;writing-mode:lr-tb;text-anchor:start;fill:#000000;fill-opacity:1;stroke:none;stroke-width:0.26458332"
       id="text44"
       transform="translate(-1.5e-6,8.0744427e-6)">
      <path
         d="m 22.718428,168.42434 5.78776,15.3789 5.77398,-15.3789 h 4.506185 v 20.06423 h -3.472657 v -6.61458 l 0.34451,-8.84701 -5.925564,15.46159 h -2.494249 l -5.911784,-15.44781 0.34451,8.83323 v 6.61458 h -3.472656 v -20.06423 z"
         style="font-style:normal;font-variant:normal;font-weight:500;font-stretch:normal;font-family:Roboto;-inkscape-font-specification:'Roboto Medium';stroke-width:0.26458332"
         id="path50"
         inkscape:connector-curvature="0" />
      <path
         d="M 46.131295,188.48857 H 42.782662 V 173.5782 h 3.348633 z m -3.555338,-18.78266 q 0,-0.7717 0.482313,-1.28157 0.496094,-0.50988 1.405599,-0.50988 0.909505,0 1.405599,0.50988 0.496093,0.50987 0.496093,1.28157 0,0.75792 -0.496093,1.2678 -0.496094,0.49609 -1.405599,0.49609 -0.909505,0 -1.405599,-0.49609 -0.482313,-0.50988 -0.482313,-1.2678 z"
         style="font-style:normal;font-variant:normal;font-weight:500;font-stretch:normal;font-family:Roboto;-inkscape-font-specification:'Roboto Medium';stroke-width:0.26458332"
         id="path52"
         inkscape:connector-curvature="0" />
      <path
         d="m 58.147788,184.43714 q 0,-0.89573 -0.74414,-1.36426 -0.730361,-0.46853 -2.439128,-0.82682 -1.708767,-0.35829 -2.852539,-0.90951 -2.508029,-1.21267 -2.508029,-3.51399 0,-1.92926 1.626085,-3.22461 1.626085,-1.29536 4.134114,-1.29536 2.673394,0 4.31326,1.32292 1.653645,1.32291 1.653645,3.43131 h -3.348632 q 0,-0.96462 -0.71658,-1.59852 -0.71658,-0.64768 -1.901693,-0.64768 -1.10243,0 -1.80523,0.50987 -0.689019,0.50988 -0.689019,1.36426 0,0.7717 0.647678,1.1989 0.647678,0.42719 2.618273,0.86816 1.970594,0.42719 3.086805,1.03353 1.129991,0.59255 1.667426,1.43316 0.551215,0.8406 0.551215,2.03949 0,2.01194 -1.667426,3.26595 -1.667426,1.24024 -4.368381,1.24024 -1.83279,0 -3.26595,-0.66146 -1.43316,-0.66146 -2.232422,-1.81901 -0.799262,-1.15755 -0.799262,-2.49425 h 3.25217 q 0.0689,1.18511 0.895725,1.83279 0.826823,0.6339 2.19108,0.6339 1.322917,0 2.011936,-0.49609 0.689019,-0.50988 0.689019,-1.32292 z"
         style="font-style:normal;font-variant:normal;font-weight:500;font-stretch:normal;font-family:Roboto;-inkscape-font-specification:'Roboto Medium';stroke-width:0.26458332"
         id="path54"
         inkscape:connector-curvature="0" />
      <path
         d="m 72.69987,184.43714 q 0,-0.89573 -0.74414,-1.36426 -0.73036,-0.46853 -2.439128,-0.82682 -1.708767,-0.35829 -2.852539,-0.90951 -2.508029,-1.21267 -2.508029,-3.51399 0,-1.92926 1.626085,-3.22461 1.626085,-1.29536 4.134114,-1.29536 2.673394,0 4.31326,1.32292 1.653645,1.32291 1.653645,3.43131 h -3.348632 q 0,-0.96462 -0.71658,-1.59852 -0.71658,-0.64768 -1.901693,-0.64768 -1.10243,0 -1.80523,0.50987 -0.689019,0.50988 -0.689019,1.36426 0,0.7717 0.647678,1.1989 0.647678,0.42719 2.618273,0.86816 1.970594,0.42719 3.086805,1.03353 1.129991,0.59255 1.667426,1.43316 0.551216,0.8406 0.551216,2.03949 0,2.01194 -1.667427,3.26595 -1.667426,1.24024 -4.368381,1.24024 -1.83279,0 -3.26595,-0.66146 -1.43316,-0.66146 -2.232422,-1.81901 -0.799262,-1.15755 -0.799262,-2.49425 h 3.25217 q 0.0689,1.18511 0.895725,1.83279 0.826823,0.6339 2.191081,0.6339 1.322916,0 2.011935,-0.49609 0.689019,-0.50988 0.689019,-1.32292 z"
         style="font-style:normal;font-variant:normal;font-weight:500;font-stretch:normal;font-family:Roboto;-inkscape-font-specification:'Roboto Medium';stroke-width:0.26458332"
         id="path57"
         inkscape:connector-curvature="0" />
      <path
         d="M 82.45638,188.48857 H 79.107747 V 173.5782 h 3.348633 z m -3.555339,-18.78266 q 0,-0.7717 0.482314,-1.28157 0.496093,-0.50988 1.405598,-0.50988 0.909506,0 1.405599,0.50988 0.496094,0.50987 0.496094,1.28157 0,0.75792 -0.496094,1.2678 -0.496093,0.49609 -1.405599,0.49609 -0.909505,0 -1.405598,-0.49609 -0.482314,-0.50988 -0.482314,-1.2678 z"
         style="font-style:normal;font-variant:normal;font-weight:500;font-stretch:normal;font-family:Roboto;-inkscape-font-specification:'Roboto Medium';stroke-width:0.26458332"
         id="path59"
         inkscape:connector-curvature="0" />
      <path
         d="m 89.222548,173.5782 0.09646,1.72255 q 1.653646,-1.99816 4.34082,-1.99816 4.657769,0 4.740452,5.33301 v 9.85297 h -3.348633 v -9.66005 q 0,-1.41938 -0.620117,-2.09461 -0.606337,-0.68902 -1.998156,-0.68902 -2.025716,0 -3.017903,1.83279 v 10.61089 H 86.06684 V 173.5782 Z"
         style="font-style:normal;font-variant:normal;font-weight:500;font-stretch:normal;font-family:Roboto;-inkscape-font-specification:'Roboto Medium';stroke-width:0.26458332"
         id="path61"
         inkscape:connector-curvature="0" />
      <path
         d="m 101.23904,180.92314 q 0,-3.47265 1.62608,-5.53971 1.63987,-2.08084 4.34082,-2.08084 2.54937,0 4.01009,1.77767 l 0.15159,-1.50206 h 3.0179 v 14.45562 q 0,2.93522 -1.83279,4.63021 -1.81901,1.69498 -4.91959,1.69498 -1.63987,0 -3.21083,-0.68902 -1.55719,-0.67523 -2.37023,-1.77766 l 1.58474,-2.01194 q 1.54341,1.83279 3.80339,1.83279 1.66743,0 2.63205,-0.9095 0.96463,-0.89573 0.96463,-2.64584 v -1.00597 q -1.44694,1.61231 -3.85851,1.61231 -2.61827,0 -4.2857,-2.08084 -1.65364,-2.08084 -1.65364,-5.7602 z m 3.33485,0.28939 q 0,2.2462 0.90951,3.54156 0.92328,1.28157 2.54937,1.28157 2.02571,0 3.00412,-1.73632 v -6.55947 q -0.95085,-1.69498 -2.97656,-1.69498 -1.65365,0 -2.57693,1.30913 -0.90951,1.30914 -0.90951,3.85851 z"
         style="font-style:normal;font-variant:normal;font-weight:500;font-stretch:normal;font-family:Roboto;-inkscape-font-specification:'Roboto Medium';stroke-width:0.26458332"
         id="path63"
         inkscape:connector-curvature="0" />
      <path
         d="m 125.18935,188.48857 v -20.06423 h 6.87641 q 3.40375,0 5.18142,1.36425 1.77767,1.36426 1.77767,4.06522 0,1.37803 -0.74414,2.48046 -0.74414,1.10244 -2.1773,1.70877 1.62608,0.44097 2.50803,1.66743 0.89572,1.21267 0.89572,2.92144 0,2.82498 -1.81901,4.34082 -1.80523,1.51584 -5.18142,1.51584 z m 3.48643,-9.05371 v 6.27007 h 3.87229 q 1.63986,0 2.56315,-0.81304 0.92329,-0.81304 0.92329,-2.25998 0,-3.12815 -3.19705,-3.19705 z m 0,-2.56315 h 3.41754 q 1.62608,0 2.53559,-0.73036 0.92328,-0.74414 0.92328,-2.09462 0,-1.48828 -0.85438,-2.14974 -0.8406,-0.66146 -2.63205,-0.66146 h -3.38998 z"
         style="font-style:normal;font-variant:normal;font-weight:500;font-stretch:normal;font-family:Roboto;-inkscape-font-specification:'Roboto Medium';stroke-width:0.26458332"
         id="path65"
         inkscape:connector-curvature="0" />
      <path
         d="m 146.23199,188.48857 h -3.34864 V 173.5782 h 3.34864 z m -3.55534,-18.78266 q 0,-0.7717 0.48231,-1.28157 0.4961,-0.50988 1.4056,-0.50988 0.90951,0 1.4056,0.50988 0.49609,0.50987 0.49609,1.28157 0,0.75792 -0.49609,1.2678 -0.49609,0.49609 -1.4056,0.49609 -0.9095,0 -1.4056,-0.49609 -0.48231,-0.50988 -0.48231,-1.2678 z"
         style="font-style:normal;font-variant:normal;font-weight:500;font-stretch:normal;font-family:Roboto;-inkscape-font-specification:'Roboto Medium';stroke-width:0.26458332"
         id="path67"
         inkscape:connector-curvature="0" />
      <path
         d="m 154.0868,169.95396 v 3.62424 h 2.63205 v 2.48047 h -2.63205 v 8.32335 q 0,0.85438 0.33073,1.24023 0.34451,0.37207 1.21267,0.37207 0.57878,0 1.17134,-0.1378 v 2.59071 q -1.14377,0.31695 -2.20486,0.31695 -3.85851,0 -3.85851,-4.25814 v -8.44737 h -2.45291 v -2.48047 h 2.45291 v -3.62424 z"
         style="font-style:normal;font-variant:normal;font-weight:500;font-stretch:normal;font-family:Roboto;-inkscape-font-specification:'Roboto Medium';stroke-width:0.26458332"
         id="path69"
         inkscape:connector-curvature="0" />
    </g>
    <g
       aria-label="Studios"
       style="font-style:normal;font-variant:normal;font-weight:500;font-stretch:normal;font-size:31.75px;line-height:1.25;font-family:Roboto;-inkscape-font-specification:'Roboto Medium';font-variant-ligatures:normal;font-variant-caps:normal;font-variant-numeric:normal;font-feature-settings:normal;text-align:start;letter-spacing:0px;word-spacing:0px;writing-mode:lr-tb;text-anchor:start;fill:#000000;fill-opacity:1;stroke:none;stroke-width:0.26458332"
       id="text48">
      <path
         d="m 47.734985,268.73578 q 0,-1.48828 -1.054199,-2.29443 -1.038696,-0.80616 -3.767212,-1.62781 -2.728515,-0.82166 -4.34082,-1.82935 -3.085083,-1.93786 -3.085083,-5.05395 0,-2.72852 2.216919,-4.49585 2.232422,-1.76734 5.782593,-1.76734 2.356445,0 4.201294,0.86817 1.844848,0.86816 2.899047,2.48047 1.0542,1.5968 1.0542,3.55017 h -3.906739 q 0,-1.76734 -1.116211,-2.75952 -1.100708,-1.00769 -3.162597,-1.00769 -1.922364,0 -2.992066,0.82165 -1.054199,0.82166 -1.054199,2.29443 0,1.24024 1.147217,2.0774 1.147217,0.82165 3.782715,1.6123 2.635498,0.77515 4.2323,1.78284 1.596801,0.99219 2.340942,2.29443 0.744141,1.28674 0.744141,3.02307 0,2.82154 -2.170411,4.49585 -2.154907,1.65882 -5.860107,1.65882 -2.449463,0 -4.511353,-0.89917 -2.046386,-0.91468 -3.193603,-2.51148 -1.131714,-1.5968 -1.131714,-3.7207 h 3.922241 q 0,1.92236 1.271241,2.97656 1.27124,1.0542 3.643188,1.0542 2.046387,0 3.06958,-0.82166 1.038696,-0.83715 1.038696,-2.20141 z"
         style="font-style:normal;font-variant:normal;font-weight:500;font-stretch:normal;font-size:31.75px;font-family:Roboto;-inkscape-font-specification:'Roboto Medium';stroke-width:0.26458332"
         id="path72" />
      <path
         d="m 59.4552,253.69794 v 4.07727 h 2.96106 v 2.79052 H 59.4552 v 9.36377 q 0,0.96119 0.372071,1.39527 0.387573,0.41858 1.364257,0.41858 0.651123,0 1.317749,-0.15503 v 2.91455 q -1.286743,0.35657 -2.480468,0.35657 -4.340821,0 -4.340821,-4.79041 v -9.5033 h -2.759521 v -2.79052 h 2.759521 v -4.07727 z"
         style="font-style:normal;font-variant:normal;font-weight:500;font-stretch:normal;font-size:31.75px;font-family:Roboto;-inkscape-font-specification:'Roboto Medium';stroke-width:0.26458332"
         id="path74" />
      <path
         d="m 75.438721,272.90607 q -1.658814,1.95337 -4.712891,1.95337 -2.728516,0 -4.139282,-1.59681 -1.395264,-1.5968 -1.395264,-4.61987 v -10.86755 h 3.767212 v 10.82104 q 0,3.19361 2.651001,3.19361 2.744019,0 3.7052,-1.96888 v -12.04577 h 3.767212 v 16.77417 h -3.550171 z"
         style="font-style:normal;font-variant:normal;font-weight:500;font-stretch:normal;font-size:31.75px;font-family:Roboto;-inkscape-font-specification:'Roboto Medium';stroke-width:0.26458332"
         id="path76" />
      <path
         d="m 82.244507,266.03827 q 0,-3.87573 1.79834,-6.21668 1.79834,-2.35644 4.821411,-2.35644 2.666504,0 4.309814,1.86035 v -8.58862 h 3.767212 v 23.8125 H 93.53064 l -0.186036,-1.73633 q -1.689819,2.04639 -4.511352,2.04639 -2.945557,0 -4.774902,-2.37195 -1.813843,-2.37195 -1.813843,-6.44922 z m 3.767212,0.32556 q 0,2.55798 0.976684,3.99976 0.992188,1.42627 2.806031,1.42627 2.309936,0 3.379638,-2.06189 v -7.16236 q -1.038696,-2.01538 -3.348633,-2.01538 -1.829345,0 -2.821533,1.45728 -0.992187,1.44177 -0.992187,4.35632 z"
         style="font-style:normal;font-variant:normal;font-weight:500;font-stretch:normal;font-size:31.75px;font-family:Roboto;-inkscape-font-specification:'Roboto Medium';stroke-width:0.26458332"
         id="path78" />
      <path
         d="m 104.87878,274.54938 h -3.76721 v -16.77417 h 3.76721 z m -3.99975,-21.1305 q 0,-0.86816 0.5426,-1.44177 0.55811,-0.57361 1.5813,-0.57361 1.02319,0 1.5813,0.57361 0.5581,0.57361 0.5581,1.44177 0,0.85267 -0.5581,1.42627 -0.55811,0.55811 -1.5813,0.55811 -1.02319,0 -1.5813,-0.55811 -0.5426,-0.5736 -0.5426,-1.42627 z"
         style="font-style:normal;font-variant:normal;font-weight:500;font-stretch:normal;font-size:31.75px;font-family:Roboto;-inkscape-font-specification:'Roboto Medium';stroke-width:0.26458332"
         id="path80" />
      <path
         d="m 108.28943,266.00726 q 0,-2.46496 0.97668,-4.43383 0.97669,-1.98438 2.74402,-3.03858 1.76734,-1.0697 4.06177,-1.0697 3.39514,0 5.50354,2.18591 2.1239,2.18592 2.29443,5.7981 l 0.0155,0.88366 q 0,2.48047 -0.96119,4.43384 -0.94567,1.95337 -2.72851,3.02307 -1.76734,1.06971 -4.09277,1.06971 -3.55018,0 -5.68958,-2.35645 -2.1239,-2.37195 -2.1239,-6.30969 z m 3.76721,0.32556 q 0,2.58899 1.0697,4.06177 1.0697,1.45728 2.97657,1.45728 1.90686,0 2.96105,-1.48828 1.06971,-1.48828 1.06971,-4.35633 0,-2.54248 -1.10071,-4.03076 -1.08521,-1.48828 -2.96106,-1.48828 -1.84485,0 -2.93005,1.47278 -1.08521,1.45727 -1.08521,4.37182 z"
         style="font-style:normal;font-variant:normal;font-weight:500;font-stretch:normal;font-size:31.75px;font-family:Roboto;-inkscape-font-specification:'Roboto Medium';stroke-width:0.26458332"
         id="path82" />
      <path
         d="m 136.50476,269.99152 q 0,-1.00769 -0.83716,-1.53479 -0.82165,-0.5271 -2.74402,-0.93018 -1.92236,-0.40308 -3.2091,-1.02319 -2.82154,-1.36426 -2.82154,-3.95325 0,-2.17041 1.82935,-3.62769 1.82935,-1.45727 4.65088,-1.45727 3.00757,0 4.85242,1.48828 1.86035,1.48828 1.86035,3.86023 h -3.76721 q 0,-1.08521 -0.80616,-1.79834 -0.80615,-0.72864 -2.1394,-0.72864 -1.24024,0 -2.03088,0.57361 -0.77515,0.57361 -0.77515,1.53479 0,0.86816 0.72864,1.34876 0.72863,0.48059 2.94555,0.97668 2.21692,0.48059 3.47266,1.16272 1.27124,0.66663 1.87585,1.6123 0.62012,0.94568 0.62012,2.29444 0,2.26343 -1.87585,3.67419 -1.87586,1.39527 -4.91443,1.39527 -2.06189,0 -3.6742,-0.74414 -1.6123,-0.74415 -2.51147,-2.04639 -0.89917,-1.30225 -0.89917,-2.80603 h 3.65869 q 0.0775,1.33325 1.00769,2.06189 0.93018,0.71313 2.46497,0.71313 1.48828,0 2.26342,-0.5581 0.77515,-0.57361 0.77515,-1.48828 z"
         style="font-style:normal;font-variant:normal;font-weight:500;font-stretch:normal;font-size:31.75px;font-family:Roboto;-inkscape-font-specification:'Roboto Medium';stroke-width:0.26458332"
         id="path84" />
    </g>
  </g>
</svg>
