<?xml version="1.0" encoding="UTF-8" standalone="no"?>
<!-- Created with Inkscape (http://www.inkscape.org/) -->

<svg
   xmlns:dc="http://purl.org/dc/elements/1.1/"
   xmlns:cc="http://creativecommons.org/ns#"
   xmlns:rdf="http://www.w3.org/1999/02/22-rdf-syntax-ns#"
   xmlns:svg="http://www.w3.org/2000/svg"
   xmlns="http://www.w3.org/2000/svg"
   xmlns:sodipodi="http://sodipodi.sourceforge.net/DTD/sodipodi-0.dtd"
   xmlns:inkscape="http://www.inkscape.org/namespaces/inkscape"
   width="175mm"
   height="50mm"
   viewBox="0 0 175 50"
   version="1.1"
   id="svg50"
   inkscape:version="0.92.3 (2405546, 2018-03-11)"
   sodipodi:docname="missing_bit_wide.svg"
   inkscape:export-filename="F:\Pictures\missing_bit_wide.png"
   inkscape:export-xdpi="96"
   inkscape:export-ydpi="96">
  <defs
     id="defs44" />
  <sodipodi:namedview
     id="base"
     pagecolor="#ffffff"
     bordercolor="#666666"
     borderopacity="1.0"
     inkscape:pageopacity="1"
     inkscape:pageshadow="2"
     inkscape:zoom="0.98994949"
     inkscape:cx="367.77201"
     inkscape:cy="285.43383"
     inkscape:document-units="mm"
     inkscape:current-layer="layer1"
     showgrid="false"
     inkscape:window-width="1920"
     inkscape:window-height="1017"
     inkscape:window-x="-8"
     inkscape:window-y="-8"
     inkscape:window-maximized="1" />
  <metadata
     id="metadata47">
    <rdf:RDF>
      <cc:Work
         rdf:about="">
        <dc:format>image/svg+xml</dc:format>
        <dc:type
           rdf:resource="http://purl.org/dc/dcmitype/StillImage" />
        <dc:title></dc:title>
      </cc:Work>
    </rdf:RDF>
  </metadata>
  <g
     inkscape:label="Layer 1"
     inkscape:groupmode="layer"
     id="layer1"
     transform="translate(0,-247)">
    <g
       aria-label="0 011010"
       style="font-style:normal;font-variant:normal;font-weight:normal;font-stretch:normal;font-size:35.27777481px;line-height:1.25;font-family:'Share Tech Mono';-inkscape-font-specification:'Share Tech Mono';letter-spacing:0px;word-spacing:0px;fill:#000000;fill-opacity:1;stroke:none;stroke-width:0.26458332"
       id="text54"
       transform="translate(0.190438,1.24523)">
      <path
         d="m 27.029762,277.10477 q 0,2.92805 -1.622778,4.48028 -1.587499,1.51694 -4.303888,1.51694 H 20.39754 q -2.716388,0 -4.339166,-1.51694 -1.5875,-1.55223 -1.5875,-4.48028 v -12.7 q 0,-2.96333 1.5875,-4.48028 1.5875,-1.51694 4.339166,-1.51694 h 0.705556 q 2.751666,0 4.339166,1.51694 1.5875,1.51695 1.5875,4.48028 z m -2.998611,-13.37028 q 0,-1.09361 -0.846666,-1.86972 -0.811389,-0.81139 -2.081389,-0.81139 H 20.39754 q -1.27,0 -2.116666,0.81139 -0.811389,0.77611 -0.811389,1.86972 v 9.56028 z m -6.561666,14.04056 q 0,1.09361 0.811389,1.905 0.846666,0.77611 2.116666,0.77611 h 0.705556 q 1.27,0 2.081389,-0.77611 0.846666,-0.81139 0.846666,-1.905 v -9.525 z"
         style="stroke-width:0.26458332"
         id="path56"
         inkscape:connector-curvature="0" />
      <path
         d="m 65.063614,277.10477 q 0,2.92805 -1.622778,4.48028 -1.5875,1.51694 -4.303889,1.51694 h -0.705555 q -2.716389,0 -4.339166,-1.51694 -1.5875,-1.55223 -1.5875,-4.48028 v -12.7 q 0,-2.96333 1.5875,-4.48028 1.5875,-1.51694 4.339166,-1.51694 h 0.705555 q 2.751667,0 4.339167,1.51694 1.5875,1.51695 1.5875,4.48028 z m -2.998611,-13.37028 q 0,-1.09361 -0.846667,-1.86972 -0.811389,-0.81139 -2.081389,-0.81139 h -0.705555 q -1.27,0 -2.116667,0.81139 -0.811388,0.77611 -0.811388,1.86972 v 9.56028 z m -6.561666,14.04056 q 0,1.09361 0.811388,1.905 0.846667,0.77611 2.116667,0.77611 h 0.705555 q 1.27,0 2.081389,-0.77611 0.846667,-0.81139 0.846667,-1.905 v -9.525 z"
         style="stroke-width:0.26458332"
         id="path58"
         inkscape:connector-curvature="0" />
      <path
         d="m 76.848596,280.45616 v -19.26167 l -4.974167,1.83445 v -2.8575 l 4.621389,-1.76389 h 3.351388 v 22.04861 h 3.845278 v 2.64583 H 72.227207 v -2.64583 z"
         style="stroke-width:0.26458332"
         id="path60"
         inkscape:connector-curvature="0" />
      <path
         d="m 95.865521,280.45616 v -19.26167 l -4.974166,1.83445 v -2.8575 l 4.621389,-1.76389 h 3.351388 v 22.04861 h 3.845278 v 2.64583 H 91.244133 v -2.64583 z"
         style="stroke-width:0.26458332"
         id="path62"
         inkscape:connector-curvature="0" />
      <path
         d="m 122.11439,277.10477 q 0,2.92805 -1.62278,4.48028 -1.5875,1.51694 -4.30389,1.51694 h -0.70555 q -2.71639,0 -4.33917,-1.51694 -1.5875,-1.55223 -1.5875,-4.48028 v -12.7 q 0,-2.96333 1.5875,-4.48028 1.5875,-1.51694 4.33917,-1.51694 h 0.70555 q 2.75167,0 4.33917,1.51694 1.5875,1.51695 1.5875,4.48028 z m -2.99861,-13.37028 q 0,-1.09361 -0.84667,-1.86972 -0.81139,-0.81139 -2.08139,-0.81139 h -0.70555 q -1.27,0 -2.11667,0.81139 -0.81139,0.77611 -0.81139,1.86972 v 9.56028 z m -6.56167,14.04056 q 0,1.09361 0.81139,1.905 0.84667,0.77611 2.11667,0.77611 h 0.70555 q 1.27,0 2.08139,-0.77611 0.84667,-0.81139 0.84667,-1.905 v -9.525 z"
         style="stroke-width:0.26458332"
         id="path64"
         inkscape:connector-curvature="0" />
      <path
         d="m 133.89937,280.45616 v -19.26167 l -4.97416,1.83445 v -2.8575 l 4.62139,-1.76389 h 3.35138 v 22.04861 h 3.84528 v 2.64583 h -11.46528 v -2.64583 z"
         style="stroke-width:0.26458332"
         id="path66"
         inkscape:connector-curvature="0" />
      <path
         d="m 160.14825,277.10477 q 0,2.92805 -1.62278,4.48028 -1.5875,1.51694 -4.30389,1.51694 h -0.70556 q -2.71638,0 -4.33916,-1.51694 -1.5875,-1.55223 -1.5875,-4.48028 v -12.7 q 0,-2.96333 1.5875,-4.48028 1.5875,-1.51694 4.33916,-1.51694 h 0.70556 q 2.75167,0 4.33917,1.51694 1.5875,1.51695 1.5875,4.48028 z m -2.99861,-13.37028 q 0,-1.09361 -0.84667,-1.86972 -0.81139,-0.81139 -2.08139,-0.81139 h -0.70556 q -1.27,0 -2.11666,0.81139 -0.81139,0.77611 -0.81139,1.86972 v 9.56028 z m -6.56167,14.04056 q 0,1.09361 0.81139,1.905 0.84666,0.77611 2.11666,0.77611 h 0.70556 q 1.27,0 2.08139,-0.77611 0.84667,-0.81139 0.84667,-1.905 v -9.525 z"
         style="stroke-width:0.26458332"
         id="path68"
         inkscape:connector-curvature="0" />
    </g>
  </g>
</svg>
